<svg width="56" height="56" viewBox="0 0 56 56" fill="none" xmlns="http://www.w3.org/2000/svg">
<g id="Icon">
<path id="Icon_2" fill-rule="evenodd" clip-rule="evenodd" d="M31.5321 3.37946C32.4329 3.70854 32.9913 4.59625 32.8878 5.5347L31.3198 19.7501H45.5C46.2745 19.7501 46.9861 20.1687 47.3515 20.8394C47.717 21.51 47.6769 22.3237 47.2473 22.9566L27.6473 51.8316C27.116 52.6143 26.1128 52.9448 25.2084 52.635C24.3041 52.3252 23.7277 51.4537 23.8073 50.5163L25.0177 36.2501H10.5C9.71938 36.2501 9.00318 35.8248 8.64047 35.1459C8.27775 34.467 8.32838 33.6466 8.77192 33.0157L29.0719 4.14066C29.618 3.3639 30.6313 3.05037 31.5321 3.37946ZM14.502 32.1251H27.3C27.8873 32.1251 28.4477 32.3666 28.8454 32.791C29.243 33.2155 29.4415 33.784 29.3927 34.3588L28.6689 42.8902L41.5761 23.8751H28.98C28.3837 23.8751 27.8155 23.6261 27.4172 23.1902C27.0188 22.7543 26.828 22.1727 26.8922 21.5904L27.8197 13.1817L14.502 32.1251Z" fill="black" fill-opacity="0.6"/>
</g>
</svg>
