<svg width="54" height="54" viewBox="0 0 54 54" fill="none" xmlns="http://www.w3.org/2000/svg">
<g id="Icon">
<path id="Icon_2" fill-rule="evenodd" clip-rule="evenodd" d="M4.725 2.69995C5.84338 2.69995 6.75 3.60657 6.75 4.72495V34.9362L19.4931 22.1931C20.1757 21.5105 21.2451 21.4046 22.0483 21.94L32.7053 29.0447L47.7375 11.5071C48.4653 10.658 49.7437 10.5596 50.5929 11.2875C51.442 12.0153 51.5403 13.2937 50.8125 14.1428L34.6125 33.0428C33.946 33.8204 32.8039 33.9779 31.9517 33.4099L21.183 26.2307L6.75 40.6637C6.75002 42.1934 6.75198 43.2229 6.81685 44.0168C6.88019 44.792 6.99327 45.1627 7.11786 45.4072C7.44143 46.0422 7.95774 46.5585 8.59278 46.8821C8.8373 47.0067 9.20796 47.1198 9.98319 47.1831C10.7821 47.2484 11.8194 47.2499 13.365 47.2499H46.575C47.6934 47.2499 48.6 48.1566 48.6 49.2749C48.6 50.3933 47.6934 51.2999 46.575 51.2999H13.2828C11.8406 51.3 10.6368 51.3 9.65339 51.2197C8.6277 51.1358 7.66473 50.9547 6.75412 50.4907C5.35702 49.7788 4.22114 48.6429 3.50928 47.2458C3.0453 46.3352 2.8641 45.3722 2.7803 44.3466C2.69995 43.3631 2.69997 42.1593 2.7 40.7171L2.7 4.72495C2.7 3.60657 3.60663 2.69995 4.725 2.69995Z" fill="black" fill-opacity="0.6"/>
</g>
</svg>
