<svg width="53" height="53" viewBox="0 0 53 53" fill="none" xmlns="http://www.w3.org/2000/svg">
<g id="Icon">
<path id="Icon_2" fill-rule="evenodd" clip-rule="evenodd" d="M13.0368 2.65003H39.9631C41.3787 2.65 42.5602 2.64997 43.5254 2.72884C44.5321 2.81109 45.4772 2.98893 46.3709 3.44432C47.7422 4.14299 48.857 5.25784 49.5557 6.62907C50.0111 7.52282 50.1889 8.46796 50.2712 9.47465C50.35 10.4399 50.35 11.6213 50.35 13.0368V29.3632C50.35 30.7787 50.35 31.9602 50.2712 32.9254C50.1889 33.9321 50.0111 34.8772 49.5557 35.771C48.857 37.1422 47.7422 38.2571 46.3709 38.9557C45.4772 39.4111 44.5321 39.589 43.5254 39.6712C42.5602 39.7501 41.3787 39.7501 39.9632 39.75H28.4875V46.375H35.1125C36.2102 46.375 37.1 47.2649 37.1 48.3625C37.1 49.4602 36.2102 50.35 35.1125 50.35H17.8875C16.7898 50.35 15.9 49.4602 15.9 48.3625C15.9 47.2649 16.7898 46.375 17.8875 46.375H24.5125V39.75H13.0368C11.6213 39.7501 10.4398 39.7501 9.47462 39.6712C8.46793 39.589 7.52279 39.4111 6.62904 38.9557C5.25781 38.2571 4.14296 37.1422 3.44429 35.771C2.9889 34.8772 2.81105 33.9321 2.7288 32.9254C2.64994 31.9602 2.64997 30.7787 2.64999 29.3632V13.0369C2.64997 11.6214 2.64994 10.4399 2.7288 9.47465C2.81105 8.46796 2.9889 7.52282 3.44429 6.62907C4.14296 5.25784 5.25781 4.14299 6.62904 3.44432C7.52279 2.98893 8.46793 2.81109 9.47462 2.72884C10.4398 2.64997 11.6213 2.65 13.0368 2.65003ZM6.62684 30.475C6.63107 31.3663 6.64499 32.0434 6.6906 32.6017C6.75277 33.3626 6.86376 33.7264 6.98604 33.9664C7.30362 34.5897 7.81037 35.0964 8.43365 35.414C8.67364 35.5363 9.03743 35.6473 9.79831 35.7094C10.5824 35.7735 11.6006 35.775 13.1175 35.775H39.8825C41.3994 35.775 42.4176 35.7735 43.2017 35.7094C43.9626 35.6473 44.3264 35.5363 44.5663 35.414C45.1896 35.0964 45.6964 34.5897 46.014 33.9664C46.1362 33.7264 46.2472 33.3626 46.3094 32.6017C46.355 32.0434 46.3689 31.3663 46.3731 30.475H6.62684ZM46.375 26.5H6.625V13.1175C6.625 11.6006 6.62654 10.5824 6.6906 9.79834C6.75277 9.03747 6.86376 8.67367 6.98604 8.43368C7.30362 7.8104 7.81037 7.30365 8.43365 6.98607C8.67364 6.86379 9.03743 6.7528 9.79831 6.69063C10.5824 6.62657 11.6006 6.62503 13.1175 6.62503H39.8825C41.3994 6.62503 42.4176 6.62657 43.2017 6.69063C43.9626 6.7528 44.3264 6.86379 44.5663 6.98607C45.1896 7.30365 45.6964 7.8104 46.014 8.43368C46.1362 8.67367 46.2472 9.03747 46.3094 9.79834C46.3734 10.5824 46.375 11.6006 46.375 13.1175V26.5Z" fill="black" fill-opacity="0.6"/>
</g>
</svg>
